<?xml version="1.0" encoding="UTF-8"?>
<svg width="158px" height="23px" viewBox="0 0 158 23" version="1.1" xmlns="http://www.w3.org/2000/svg" xmlns:xlink="http://www.w3.org/1999/xlink">
    <title>Newsroom Lockup</title>
    <g id="Page-1" stroke="none" stroke-width="1" fill="none" fill-rule="evenodd">
        <g id="01_L" transform="translate(-393.000000, -8339.000000)" fill="#333" fill-rule="nonzero">
            <g id="Next-Router" transform="translate(393.000000, 8339.000000)">
                <g id="Newsroom_Lockup">
                    <g id="Newsroom" transform="translate(24.364486, 1.483871)">
                        <polygon id="Shape" points="0.220997565 21.1251245 0.220997565 0.321097511 3.15442601 0.321097511 13.9625421 15.6609766 14.0779283 15.6609766 14.0779283 0.321097511 17.2279148 0.321097511 17.2279148 21.1251237 14.309258 21.1251237 3.50114194 5.79970495 3.37098411 5.79970495 3.37098411 21.1251246 0.220997565 21.1251246"></polygon>
                        <path d="M33.198865,16.670157 C32.7799631,19.4237834 30.0923573,21.3125557 26.6533479,21.3125557 C22.2318839,21.3125557 19.4865851,18.3570386 19.4865851,13.613694 C19.4865851,8.85616795 22.2463769,5.77078382 26.5234688,5.77078382 C30.7280961,5.77078382 33.372223,8.65427621 33.372223,13.2532922 L33.372223,14.3203151 L22.6365716,14.3203151 L22.6365716,14.5077462 C22.6365716,17.1028627 24.269258,18.8039257 26.725534,18.8039257 C28.459671,18.8039257 29.8178274,17.9821763 30.2367294,16.670157 L33.198865,16.670157 Z M22.6507858,12.1431657 L30.2512179,12.1431657 C30.1790363,9.82224493 28.690722,8.29387439 26.5234688,8.29387439 C24.3704299,8.29387439 22.8099295,9.85088799 22.6507858,12.1431657 Z" id="Shape"></path>
                        <polygon id="Shape" points="51.4446462 21.1251245 48.1937709 21.1251245 45.0003055 9.76440266 44.9281194 9.76440266 41.76364 21.1251245 38.5414674 21.1251245 34.3655473 5.95821496 37.486548 5.95821496 40.2608327 17.8956909 40.3188045 17.8956909 43.483284 5.95821496 46.4886198 5.95821496 49.6675878 17.8956909 49.7397739 17.8956909 52.5140586 5.95821496 55.6060733 5.95821496"></polygon>
                        <path d="M62.8990921,5.78524437 C66.2656367,5.78524437 68.6787126,7.64509556 68.7511773,10.3266962 L65.8177489,10.3266962 C65.6878698,8.98603493 64.5462714,8.16400739 62.8124131,8.16400739 C61.121755,8.16400739 59.9946495,8.94265322 59.9946495,10.1248045 C59.9946495,11.0330392 60.7460531,11.6387144 62.3210464,12.0280374 L64.8784944,12.6189739 C67.9418019,13.354238 69.0978932,14.4788251 69.0978932,16.6990781 C69.0978932,19.438244 66.4969665,21.3125557 62.7834272,21.3125557 C59.2000458,21.3125557 56.7869699,19.4816257 56.5556402,16.7135387 L59.6479336,16.7135387 C59.8647704,18.1696075 61.035076,18.9482533 62.928078,18.9482533 C64.7918154,18.9482533 65.9623996,18.184068 65.9623996,16.9729957 C65.9623996,16.0358387 65.384354,15.5313875 63.7948677,15.127604 L61.0785548,14.4643646 C58.3329773,13.8011251 56.9458349,12.4028997 56.9458349,10.2977751 C56.9458349,7.61617443 59.3589108,5.78524437 62.8990921,5.78524437 Z" id="Shape"></path>
                        <path d="M71.5268556,5.95821499 L74.5034842,5.95821499 L74.5034842,8.53886975 L74.5756702,8.53886975 C75.052544,6.82334612 76.4396863,5.79970495 78.2315164,5.79970495 C78.6794042,5.79970495 79.0551061,5.85726912 79.3006501,5.91511138 L79.3006501,8.82724679 C79.0551061,8.72630092 78.5060463,8.63981563 77.8990148,8.63981563 C75.8906266,8.63981563 74.648135,9.99521554 74.648135,12.1287051 L74.648135,21.1251246 L71.5268556,21.1251246 L71.5268556,5.95821499 L71.5268556,5.95821499 Z" id="Shape"></path>
                        <path d="M79.8193304,13.5416692 C79.8193304,8.76968263 82.6368152,5.77078382 87.0295721,5.77078382 C91.4365431,5.77078382 94.2398138,8.76968263 94.2398138,13.5416692 C94.2398138,18.3281175 91.4510361,21.3125557 87.0295721,21.3125557 C82.6078293,21.3125557 79.8193304,18.3281175 79.8193304,13.5416692 Z M91.0608413,13.5416692 C91.0608413,10.269132 89.5580341,8.3372561 87.0295721,8.3372561 C84.5008313,8.3372561 82.9980241,10.2833145 82.9980241,13.5416692 C82.9980241,16.8289451 84.5008313,18.7463616 87.0295721,18.7463616 C89.5580341,18.7463616 91.0608413,16.8289451 91.0608413,13.5416692 Z" id="Shape"></path>
                        <path d="M95.7387191,13.5416692 C95.7387191,8.76968263 98.5562039,5.77078382 102.948961,5.77078382 C107.355932,5.77078382 110.159203,8.76968263 110.159203,13.5416692 C110.159203,18.3281175 107.370425,21.3125557 102.948961,21.3125557 C98.527218,21.3125557 95.7387191,18.3281175 95.7387191,13.5416692 Z M106.98023,13.5416692 C106.98023,10.269132 105.477423,8.3372561 102.948961,8.3372561 C100.42022,8.3372561 98.9174128,10.2833145 98.9174128,13.5416692 C98.9174128,16.8289451 100.42022,18.7463616 102.948961,18.7463616 C105.477423,18.7463616 106.98023,16.8289451 106.98023,13.5416692 Z" id="Shape"></path>
                        <path d="M112.130243,5.95821499 L115.106872,5.95821499 L115.106872,8.5533303 L115.179058,8.5533303 C115.858276,6.83780667 117.505455,5.78524437 119.499629,5.78524437 C121.609189,5.78524437 123.140703,6.86672783 123.747735,8.75522205 L123.819921,8.75522205 C124.600032,6.90983141 126.391862,5.78524437 128.559394,5.78524437 C131.56473,5.78524437 133.529918,7.77496257 133.529918,10.8025044 L133.529918,21.1251246 L130.394424,21.1251246 L130.394424,11.5377686 C130.394424,9.59143208 129.339505,8.46684501 127.489981,8.46684501 C125.640458,8.46684501 124.354488,9.82224493 124.354488,11.7396603 L124.354488,21.1251246 L121.29118,21.1251246 L121.29118,11.3214163 C121.29118,9.5769715 120.178568,8.46684501 118.415724,8.46684501 C116.5662,8.46684501 115.251523,9.89426967 115.251523,11.8547886 L115.251523,21.1251246 L112.130243,21.1251246 L112.130243,5.95821499 L112.130243,5.95821499 Z" id="Shape"></path>
                    </g>
                    <g id="icon_apple">
                        <path d="M12.6435533,3.65090529 C13.4311705,2.66810603 13.9656428,1.3484877 13.8246806,0 C12.6717182,0.0571947613 11.264748,0.758843341 10.4501795,1.74241408 C9.71878554,2.58469046 9.07144455,3.95955701 9.24020229,5.25151634 C10.5344611,5.36352054 11.8275249,4.60613289 12.6435533,3.65090529" id="Shape"></path>
                        <path d="M13.8099737,5.50377692 C11.9303951,5.39208202 10.3322967,6.56799434 9.43469878,6.56799434 C8.53660998,6.56799434 7.16209979,5.56006197 5.67545362,5.58722457 C3.74049081,5.61557713 1.94506763,6.70702733 0.963156223,8.442937 C-1.05646974,11.9156129 0.430176377,17.0668128 2.39415516,19.8951176 C3.34790904,21.2943682 4.4973401,22.8350459 6.01189729,22.7797073 C7.44289626,22.7236844 8.00378779,21.8553081 9.74323146,21.8553081 C11.481395,21.8553081 11.9866382,22.7797073 13.5014422,22.7517035 C15.0723309,22.7236844 16.054416,21.3517532 17.0081515,19.9511405 C18.1022862,18.356064 18.5501816,16.8158919 18.5783575,16.731342 C18.5501816,16.7033404 15.5492421,15.5548353 15.5214179,12.1110186 C15.4930858,9.22746085 17.8774888,7.85588118 17.9897122,7.77082465 C16.6432197,5.78408183 14.5393504,5.56006195 13.8099737,5.50377692" id="Shape"></path>
                    </g>
                </g>
            </g>
        </g>
    </g>
</svg>
